<svg width="19" height="20" viewBox="0 0 19 20" fill="none" xmlns="http://www.w3.org/2000/svg">
<path d="M1.49996 20C1.27895 20 1.06698 19.9122 0.910704 19.7559C0.754424 19.5996 0.666626 19.3877 0.666626 19.1666V0.833313C0.666651 0.688504 0.70441 0.546201 0.776182 0.42043C0.847954 0.294658 0.951261 0.18976 1.07592 0.116075C1.20058 0.0423892 1.34229 0.00245944 1.48708 0.000221606C1.63187 -0.00201623 1.77475 0.0335151 1.90163 0.103313L18.5683 9.26998C18.6989 9.34192 18.8079 9.4476 18.8838 9.57601C18.9597 9.70441 18.9997 9.85083 18.9997 9.99998C18.9997 10.1491 18.9597 10.2955 18.8838 10.424C18.8079 10.5524 18.6989 10.658 18.5683 10.73L1.90163 19.8966C1.77858 19.9644 1.64042 19.9999 1.49996 20Z" fill="#FFC93E"/>
</svg>
